<svg width="36" height="36" xmlns="http://www.w3.org/2000/svg" xmlns:xlink="http://www.w3.org/1999/xlink" overflow="hidden"><defs><clipPath id="clip0"><rect x="0" y="0" width="36" height="36"/></clipPath></defs><g clip-path="url(#clip0)"><path d="M24 0C30.6274-3.55271e-15 36 5.37258 36 12L36 24C36 30.6274 30.6274 36 24 36L12 36C5.37258 36 0 30.6274 0 24L0 12C-1.77636e-15 5.37258 5.37258 0 12 0Z" fill="#92B8B7"/><path d="M18.933 25.682 18.933 18.393 21.422 18.393 21.778 15.549 18.933 15.549 18.933 13.771C18.933 12.971 19.2 12.349 20.355 12.349L21.866 12.349 21.866 9.771C21.511 9.771 20.622 9.682 19.644 9.682 17.7533 9.55664 16.1189 10.9878 15.9935 12.8785 15.9817 13.0572 15.9838 13.2366 16 13.415L16 15.549 13.511 15.549 13.511 18.393 16 18.393 16 25.682Z" fill="#FEFEFE" fill-rule="evenodd"/></g></svg>