<svg width="36" height="36" xmlns="http://www.w3.org/2000/svg" xmlns:xlink="http://www.w3.org/1999/xlink" overflow="hidden"><defs><clipPath id="clip0"><rect x="0" y="0" width="36" height="36"/></clipPath></defs><g clip-path="url(#clip0)"><path d="M24 0C30.6274-3.55271e-15 36 5.37258 36 12L36 24C36 30.6274 30.6274 36 24 36L12 36C5.37258 36 0 30.6274 0 24L0 12C-1.77636e-15 5.37258 5.37258 0 12 0Z" fill="#92B8B7"/><path d="M18 11.422C19.0675 11.382 20.1364 11.4117 21.2 11.511 21.7159 11.5047 22.2285 11.5952 22.711 11.778 23.3767 12.0883 23.9117 12.6233 24.222 13.289 24.4048 13.7715 24.4953 14.2841 24.489 14.8 24.489 15.6 24.578 15.867 24.578 18 24.618 19.0675 24.5883 20.1364 24.489 21.2 24.4953 21.7159 24.4048 22.2285 24.222 22.711 23.9117 23.3767 23.3767 23.9117 22.711 24.222 22.2285 24.4048 21.7159 24.4953 21.2 24.489 20.4 24.489 20.133 24.578 18 24.578 16.9325 24.618 15.8636 24.5883 14.8 24.489 14.2841 24.4953 13.7715 24.4048 13.289 24.222 12.6233 23.9117 12.0883 23.3767 11.778 22.711 11.5952 22.2285 11.5047 21.7159 11.511 21.2 11.511 20.4 11.422 20.133 11.422 18 11.382 16.9325 11.4117 15.8636 11.511 14.8 11.5047 14.2841 11.5952 13.7715 11.778 13.289 11.9331 12.9593 12.1435 12.6587 12.4 12.4 12.6083 12.089 12.9254 11.8671 13.289 11.778 13.7715 11.5952 14.2841 11.5047 14.8 11.511 15.8636 11.4117 16.9325 11.382 18 11.422M18 10C16.9029 9.9609 15.8044 9.99062 14.711 10.089 14.0432 10.0874 13.3806 10.2077 12.756 10.444 12.2166 10.62 11.7284 10.9252 11.334 11.333 10.9257 11.7276 10.6201 12.2162 10.444 12.756 10.1652 13.3681 10.0432 14.04 10.089 14.711 9.99062 15.8044 9.9609 16.9029 10 18 9.9609 19.0971 9.99062 20.1956 10.089 21.289 10.0876 21.9572 10.2082 22.6201 10.445 23.245 10.621 23.7844 10.9262 24.2726 11.334 24.667 11.7284 25.0748 12.2166 25.38 12.756 25.556 13.3809 25.7928 14.0438 25.9134 14.712 25.912 15.8051 26.01 16.9032 26.0394 18 26 19.0971 26.0391 20.1956 26.0094 21.289 25.911 21.9572 25.9124 22.6201 25.7918 23.245 25.555 24.3299 25.1812 25.1822 24.3289 25.556 23.244 25.7928 22.6191 25.9134 21.9562 25.912 21.288 25.911 20.4 26 20.133 26 18 26.0391 16.9029 26.0094 15.8044 25.911 14.711 25.9124 14.0428 25.7918 13.3799 25.555 12.755 25.379 12.2156 25.0738 11.7274 24.666 11.333 24.2716 10.9252 23.7834 10.62 23.244 10.444 22.6194 10.2077 21.9568 10.0874 21.289 10.089 20.1956 9.99062 19.0971 9.9609 18 10M18 13.911C15.7785 13.8742 13.9478 15.6454 13.911 17.8669 13.9103 17.9113 13.9103 17.9556 13.911 18 13.911 20.2583 15.7417 22.089 18 22.089 20.2583 22.089 22.089 20.2583 22.089 18 22.089 15.7417 20.2583 13.911 18 13.911M18 20.667C16.5538 20.6938 15.3598 19.5431 15.333 18.0969 15.3324 18.0646 15.3324 18.0323 15.333 18 15.3062 16.5538 16.4569 15.3598 17.9031 15.333 17.9354 15.3324 17.9677 15.3324 18 15.333 19.4462 15.3062 20.6402 16.4569 20.667 17.9031 20.6676 17.9354 20.6676 17.9677 20.667 18 20.6938 19.4462 19.5431 20.6402 18.0969 20.667 18.0646 20.6676 18.0323 20.6676 18 20.667M22.267 12.756C21.7269 12.756 21.289 13.1939 21.289 13.734 21.289 14.2741 21.7269 14.712 22.267 14.712 22.8071 14.712 23.245 14.2741 23.245 13.734 23.2407 13.1957 22.8053 12.7604 22.267 12.756" fill="#FEFEFE" fill-rule="evenodd"/></g></svg>