<svg width="36" height="36" xmlns="http://www.w3.org/2000/svg" xmlns:xlink="http://www.w3.org/1999/xlink" overflow="hidden"><defs><clipPath id="clip0"><rect x="0" y="0" width="36" height="36"/></clipPath></defs><g clip-path="url(#clip0)"><path d="M24 0C30.6274-3.55271e-15 36 5.37258 36 12L36 24C36 30.6274 30.6274 36 24 36L12 36C5.37258 36 0 30.6274 0 24L0 12C-1.77636e-15 5.37258 5.37258 0 12 0Z" fill="#92B8B7"/><path d="M15.067 24.978C20.1754 25.0241 24.354 20.9202 24.4 15.8118 24.4005 15.7558 24.4005 15.6999 24.4 15.644L24.4 15.2C25.0211 14.7271 25.5614 14.1567 26 13.511 25.4039 13.7701 24.7761 13.9493 24.133 14.044 24.7941 13.6288 25.2953 13.0022 25.555 12.266 24.9128 12.6236 24.2253 12.8927 23.511 13.066 22.9023 12.381 22.0274 11.9923 21.111 12 19.306 12.0274 17.8494 13.484 17.822 15.289 17.8018 15.5296 17.8321 15.7718 17.911 16 15.2645 15.8723 12.8019 14.6085 11.155 12.533 10.8625 13.0477 10.7094 13.6299 10.711 14.222 10.7348 15.3108 11.2595 16.3277 12.133 16.978 11.5988 16.9672 11.0771 16.8139 10.622 16.534L10.622 16.534C10.6203 18.1052 11.7432 19.4525 13.289 19.734 12.9995 19.8121 12.6992 19.8422 12.4 19.823 12.1887 19.8372 11.9768 19.8069 11.778 19.734 12.2233 21.0837 13.4682 22.0085 14.889 22.045 13.7205 22.9577 12.2827 23.4577 10.8 23.467 10.5303 23.4814 10.26 23.4514 10 23.378 11.471 24.4462 13.2493 25.0077 15.067 24.978" fill="#FEFEFE" fill-rule="evenodd"/></g></svg>